<svg width="35" height="35" viewBox="0 0 35 35" fill="none" xmlns="http://www.w3.org/2000/svg"><path d="M1.41016 6.1416V14.604H9.87256" stroke="hsl(74, 100%, 90%)" stroke-width="2.8208" stroke-linecap="round" stroke-linejoin="round"></path><path d="M33.439 28.708V20.2456H24.9766" stroke="hsl(74, 100%, 90%)" stroke-width="2.8208" stroke-linecap="round" stroke-linejoin="round"></path><path d="M28.8989 13.1934C28.1836 11.172 26.9678 9.36477 25.3651 7.94029C23.7625 6.51581 21.825 5.52053 19.7337 5.04733C17.6423 4.57413 15.4651 4.63843 13.4053 5.23423C11.3455 5.83003 9.47024 6.93791 7.95441 8.4545L1.41016 14.6038M32.439 20.2454L25.8947 26.3948C24.3789 27.9114 22.5036 29.0193 20.4438 29.6151C18.384 30.2109 16.2068 30.2752 14.1154 29.802C12.0241 29.3288 10.0867 28.3335 8.48397 26.909C6.88129 25.4845 5.66557 23.6772 4.95026 21.6558" stroke="hsl(74, 100%, 90%)" stroke-width="2.8208" stroke-linecap="round" stroke-linejoin="round"></path></svg>